<?xml version="1.0" encoding="UTF-8" standalone="no"?>
<!-- Created with Inkscape (http://www.inkscape.org/) -->

<svg
   xmlns:dc="http://purl.org/dc/elements/1.1/"
   xmlns:cc="http://creativecommons.org/ns#"
   xmlns:rdf="http://www.w3.org/1999/02/22-rdf-syntax-ns#"
   xmlns:svg="http://www.w3.org/2000/svg"
   xmlns="http://www.w3.org/2000/svg"
   xmlns:sodipodi="http://sodipodi.sourceforge.net/DTD/sodipodi-0.dtd"
   xmlns:inkscape="http://www.inkscape.org/namespaces/inkscape"
   width="84.873032mm"
   height="79.105255mm"
   viewBox="0 0 300.73121 280.29421"
   id="svg5963"
   version="1.1"
   inkscape:version="0.91 r13725"
   sodipodi:docname="icon-logo.svg">
  <defs
     id="defs5965">
    <clipPath
       id="clipPath5027-3-1-7"
       clipPathUnits="userSpaceOnUse">
      <path
         inkscape:connector-curvature="0"
         id="path5029-6-9-8"
         d="M 0,64 64,64 64,0 0,0 0,64 Z" />
    </clipPath>
    <clipPath
       clipPathUnits="userSpaceOnUse"
       id="clipPath4527-4-2">
      <rect
         style="fill:#ff3400;fill-opacity:1;stroke:#ff3400;stroke-width:0;stroke-miterlimit:4;stroke-dasharray:none;stroke-dashoffset:0;stroke-opacity:1"
         id="rect4529-9-9"
         width="13.999495"
         height="13.799501"
         x="-0.43332106"
         y="11.266753" />
    </clipPath>
    <clipPath
       clipPathUnits="userSpaceOnUse"
       id="clipPath4689-4-96-65">
      <rect
         style="fill:#ff3400;fill-opacity:1;stroke:#ff3400;stroke-width:0;stroke-miterlimit:4;stroke-dasharray:none;stroke-dashoffset:0;stroke-opacity:1"
         id="rect4691-7-9-9"
         width="14.699464"
         height="13.899493"
         x="22.765831"
         y="11.266761"
         ry="0" />
    </clipPath>
  </defs>
  <sodipodi:namedview
     id="base"
     pagecolor="#ffffff"
     bordercolor="#666666"
     borderopacity="1.0"
     inkscape:pageopacity="0.0"
     inkscape:pageshadow="2"
     inkscape:zoom="1.0245575"
     inkscape:cx="64.69554"
     inkscape:cy="32.740544"
     inkscape:document-units="px"
     inkscape:current-layer="layer1"
     showgrid="false"
     fit-margin-top="0"
     fit-margin-left="0"
     fit-margin-right="0"
     fit-margin-bottom="0"
     inkscape:window-width="1920"
     inkscape:window-height="993"
     inkscape:window-x="1920"
     inkscape:window-y="24"
     inkscape:window-maximized="1" />
  <metadata
     id="metadata5968">
    <rdf:RDF>
      <cc:Work
         rdf:about="">
        <dc:format>image/svg+xml</dc:format>
        <dc:type
           rdf:resource="http://purl.org/dc/dcmitype/StillImage" />
        <dc:title />
      </cc:Work>
    </rdf:RDF>
  </metadata>
  <g
     inkscape:label="Layer 1"
     inkscape:groupmode="layer"
     id="layer1"
     transform="translate(-110.1432,-265.11791)">
    <path
       style="fill:none;fill-rule:evenodd;stroke:#ff3400;stroke-width:2.05559111;stroke-linecap:butt;stroke-linejoin:miter;stroke-miterlimit:4;stroke-dasharray:4.11118208, 4.11118208;stroke-dashoffset:0;stroke-opacity:1"
       d="m 324.76627,309.96165 -7.2724,71.25473"
       id="path9460-4-27-2-4"
       inkscape:connector-curvature="0" />
    <path
       style="fill:none;fill-rule:evenodd;stroke:#ff3400;stroke-width:2.05559111;stroke-linecap:butt;stroke-linejoin:miter;stroke-miterlimit:4;stroke-dasharray:4.11118208, 4.11118208;stroke-dashoffset:0;stroke-opacity:1"
       d="m 154.63407,464.96283 99.3247,-8.7701"
       id="path9452-5-1-0-3"
       inkscape:connector-curvature="0" />
    <circle
       style="fill:#0b47fc;fill-opacity:1;stroke:#ffffff;stroke-width:0;stroke-miterlimit:4;stroke-dasharray:none;stroke-opacity:1"
       id="path9404-6-7-23-7"
       cx="308.26675"
       cy="443.66815"
       r="88.332062" />
    <circle
       style="fill:none;fill-opacity:1;stroke:#0b47fc;stroke-width:2.86870551;stroke-miterlimit:4;stroke-dasharray:5.73741112, 5.73741112;stroke-dashoffset:0;stroke-opacity:1"
       id="path9416-2-5-6-8"
       cx="308.69852"
       cy="443.23621"
       r="100.74155" />
    <path
       style="fill:none;fill-rule:evenodd;stroke:#ff3400;stroke-width:1.81375682;stroke-linecap:butt;stroke-linejoin:miter;stroke-miterlimit:4;stroke-dasharray:3.6275136, 3.6275136;stroke-dashoffset:0;stroke-opacity:1"
       d="m 143.52637,456.35323 22.8695,-107.42131"
       id="path9464-3-0-8-2"
       inkscape:connector-curvature="0" />
    <path
       style="fill:#000000;fill-opacity:0;fill-rule:evenodd;stroke:#ff3400;stroke-width:1.81375682;stroke-linecap:butt;stroke-linejoin:miter;stroke-miterlimit:4;stroke-dasharray:3.6275136, 3.6275136;stroke-dashoffset:0;stroke-opacity:1"
       d="m 196.59307,324.18115 125.6144,-28.72266"
       id="path9466-0-9-9-8"
       inkscape:connector-curvature="0" />
    <path
       style="fill:none;fill-rule:evenodd;stroke:#0b47fc;stroke-width:2.90201092;stroke-linecap:butt;stroke-linejoin:miter;stroke-miterlimit:4;stroke-dasharray:5.80402176, 5.80402176;stroke-dashoffset:0;stroke-opacity:1"
       d="m 257.24047,399.52956 -65.9359,-54.23257"
       id="path9470-4-36-2-8"
       inkscape:connector-curvature="0" />
    <circle
       style="fill:none;fill-opacity:1;stroke:#ff3400;stroke-width:2.386904;stroke-miterlimit:4;stroke-dasharray:4.7738079, 4.7738079;stroke-dashoffset:0;stroke-opacity:1"
       id="path9416-83-5-9-8-7"
       cx="170.40277"
       cy="330.09222"
       r="44.115528" />
    <ellipse
       style="fill:#ff3400;fill-opacity:1;stroke:#ffffff;stroke-width:0;stroke-miterlimit:4;stroke-dasharray:none;stroke-opacity:1"
       id="path9404-2-0-0-6-6"
       cx="170.2597"
       cy="330.51764"
       rx="37.891285"
       ry="37.598129" />
    <g
       style="fill:#ffffff;fill-opacity:1;stroke:#ffffff"
       id="g5023-8-7-0"
       transform="matrix(0.82474766,0,0,-0.81836681,144.24227,357.9267)">
      <g
         style="fill:#ffffff;fill-opacity:1;stroke:#ffffff"
         id="g5025-7-3-4"
         clip-path="url(#clipPath5027-3-1-7)">
        <g
           style="fill:#ffffff;fill-opacity:1;stroke:#ffffff"
           id="g5031-9-5-9"
           transform="translate(27,16.3433)">
          <path
             d="M 0,0 -10.829,10.828 -5.171,16.485 0,11.313 17.171,28.485 22.829,22.828 0,0 Z m 30,37.657 c -7.821,0 -19.026,3.178 -23.491,8.312 L 5.102,47.587 3.586,46.071 C -1.693,40.792 -12.053,36.657 -20,36.657 l -2,0 0,-25 c 0,-16.82 25.082,-27.242 26.153,-27.685 l 0.764,-0.315 0.763,0.315 C 6.752,-15.585 32,-5.163 32,11.657 l 0,26 -2,0 z"
             style="fill:#ffffff;fill-opacity:1;fill-rule:nonzero;stroke:#ffffff"
             id="path5033-2-35-1"
             inkscape:connector-curvature="0" />
        </g>
      </g>
    </g>
    <ellipse
       style="fill:none;fill-opacity:1;stroke:#ff3400;stroke-width:1.97684336;stroke-miterlimit:4;stroke-dasharray:3.95368668, 3.95368668;stroke-dashoffset:0;stroke-opacity:1"
       id="path9416-8-7-5-95-2"
       cx="140.71013"
       cy="467.20367"
       rx="29.578508"
       ry="28.534414" />
    <g
       id="g4790-9-2"
       transform="matrix(1.4063882,-0.24826984,0.23950614,1.356744,-721.57473,-249.18796)">
      <rect
         y="609.41028"
         x="497.24759"
         height="22.728432"
         width="19.445435"
         id="rect4788-7-2"
         style="fill:#ffffff;fill-opacity:1;stroke:#ff3400;stroke-width:0;stroke-miterlimit:4;stroke-dasharray:none;stroke-dashoffset:0;stroke-opacity:1" />
      <g
         style="fill:#ff3400;fill-opacity:1"
         clip-path="url(#clipPath4527-4-2)"
         inkscape:export-ydpi="90"
         inkscape:export-xdpi="90"
         inkscape:export-filename="C:\Users\KingEricc\Pictures\identity board.png"
         transform="matrix(2.6035642,0,0,2.6035642,490.05952,573.444)"
         id="g5625-99-4">
        <g
           style="fill:#ff3400;fill-opacity:1"
           id="g5585-0-6">
          <path
             style="fill:#ff3400;fill-opacity:1"
             inkscape:connector-curvature="0"
             d="m 19.954,19.032 2.22,2.219 -2.22,2.219 0,-1.127 -5.592,0 0,-2.182 5.592,0 0,-1.129 z m -3.376,-3.799 -2.219,2.22 2.219,2.219 0,-1.128 5.592,0 0,-2.182 -5.592,0 0,-1.129 z M 7.289,18.797 C 7.145,18.706 6.912,18.633 6.592,18.571 L 5.854,18.436 5.625,19.663 c -0.026,0.175 -0.039,0.278 -0.036,0.312 0.005,0.039 0.024,0.069 0.051,0.088 0.03,0.021 0.112,0.047 0.252,0.07 l 0.413,0.08 c 0.238,0.043 0.443,0.059 0.609,0.043 C 7.082,20.239 7.233,20.172 7.371,20.053 7.507,19.934 7.595,19.776 7.633,19.575 7.66,19.407 7.651,19.26 7.595,19.128 7.537,19 7.437,18.885 7.289,18.797 Z M 7.634,16.546 C 7.502,16.477 7.257,16.406 6.892,16.337 l -0.62,-0.115 -0.259,1.382 0.62,0.118 C 6.959,17.782 7.207,17.8 7.371,17.776 7.537,17.749 7.668,17.688 7.768,17.595 7.865,17.499 7.929,17.379 7.955,17.237 7.984,17.087 7.973,16.955 7.918,16.833 7.864,16.714 7.77,16.619 7.634,16.546 Z m 5.51,1.72 c 0,3.631 -2.942,6.571 -6.571,6.571 C 2.944,24.837 0,21.897 0,18.266 c 0,-3.629 2.943,-6.57 6.572,-6.57 3.629,0 6.572,2.941 6.572,6.57 z M 9.277,16.529 C 9.165,16.286 8.979,16.081 8.719,15.913 8.619,15.846 8.494,15.789 8.357,15.734 l 0.188,-1 L 7.584,14.555 7.41,15.488 6.793,15.373 6.968,14.439 6.007,14.257 5.83,15.195 4.366,14.919 4.22,15.701 4.443,15.747 c 0.15,0.024 0.25,0.058 0.298,0.096 0.047,0.038 0.08,0.08 0.088,0.132 0.015,0.049 0.008,0.156 -0.024,0.326 l -0.593,3.163 c -0.029,0.166 -0.06,0.27 -0.09,0.312 -0.035,0.043 -0.076,0.072 -0.133,0.09 -0.058,0.016 -0.16,0.01 -0.31,-0.02 L 3.45,19.805 3.305,20.588 4.77,20.86 l -0.172,0.935 0.959,0.183 0.174,-0.935 0.544,0.103 c 0.025,0.006 0.05,0.008 0.073,0.012 l -0.174,0.936 0.961,0.178 0.188,-1.01 C 7.489,21.258 7.637,21.244 7.767,21.221 8.123,21.151 8.416,21 8.646,20.782 8.874,20.565 9.017,20.303 9.073,20.003 9.12,19.753 9.103,19.513 9.024,19.288 8.942,19.059 8.808,18.87 8.628,18.718 8.503,18.613 8.314,18.496 8.061,18.382 c 0.267,-0.04 0.483,-0.105 0.657,-0.207 0.175,-0.104 0.32,-0.229 0.43,-0.381 0.111,-0.154 0.188,-0.325 0.223,-0.512 0.047,-0.258 0.016,-0.51 -0.094,-0.753 z m 27.255,1.737 c 0,3.631 -2.942,6.571 -6.57,6.571 -3.631,0 -6.571,-2.939 -6.571,-6.571 0,-3.629 2.94,-6.57 6.571,-6.57 3.626,-0.004 6.57,2.941 6.57,6.57 z m -4.123,1.455 c 0,-1.002 -0.535,-1.613 -1.856,-2.08 -0.945,-0.354 -1.334,-0.59 -1.334,-0.955 0,-0.312 0.231,-0.623 0.955,-0.623 0.801,0 1.312,0.256 1.602,0.379 l 0.322,-1.256 c -0.367,-0.18 -0.867,-0.334 -1.612,-0.367 l 0,-0.979 -1.089,0 0,1.058 c -1.188,0.232 -1.879,1 -1.879,1.979 0,1.078 0.812,1.633 2,2.034 0.824,0.276 1.178,0.545 1.178,0.967 0,0.445 -0.432,0.688 -1.062,0.688 -0.726,0 -1.382,-0.233 -1.849,-0.489 l -0.332,1.301 c 0.42,0.244 1.144,0.445 1.89,0.479 l 0,1.055 1.09,0 0,-1.131 c 1.272,-0.226 1.976,-1.073 1.976,-2.06 z"
             id="path5587-52-0" />
        </g>
        <g
           style="fill:#ff3400;fill-opacity:1"
           id="g5589-1-2" />
        <g
           style="fill:#ff3400;fill-opacity:1"
           id="g5591-0-3" />
        <g
           style="fill:#ff3400;fill-opacity:1"
           id="g5593-2-9" />
        <g
           style="fill:#ff3400;fill-opacity:1"
           id="g5595-0-8" />
        <g
           style="fill:#ff3400;fill-opacity:1"
           id="g5597-6-6" />
        <g
           style="fill:#ff3400;fill-opacity:1"
           id="g5599-3-8" />
        <g
           style="fill:#ff3400;fill-opacity:1"
           id="g5601-6-6" />
        <g
           style="fill:#ff3400;fill-opacity:1"
           id="g5603-9-9" />
        <g
           style="fill:#ff3400;fill-opacity:1"
           id="g5605-4-7" />
        <g
           style="fill:#ff3400;fill-opacity:1"
           id="g5607-8-2" />
        <g
           style="fill:#ff3400;fill-opacity:1"
           id="g5609-40-6" />
        <g
           style="fill:#ff3400;fill-opacity:1"
           id="g5611-8-8" />
        <g
           style="fill:#ff3400;fill-opacity:1"
           id="g5613-4-8" />
        <g
           style="fill:#ff3400;fill-opacity:1"
           id="g5615-4-9" />
        <g
           style="fill:#ff3400;fill-opacity:1"
           id="g5617-8-8" />
      </g>
    </g>
    <ellipse
       style="fill:none;fill-opacity:1;stroke:#ff3400;stroke-width:2.12668419;stroke-miterlimit:4;stroke-dasharray:4.25336861, 4.25336861;stroke-dashoffset:0;stroke-opacity:1"
       id="path9416-5-8-2-2-8"
       cx="325.96085"
       cy="294.87775"
       rx="29.32135"
       ry="28.696486" />
    <rect
       style="fill:#ffffff;fill-opacity:1;stroke:#ff3400;stroke-width:0;stroke-miterlimit:4;stroke-dasharray:none;stroke-dashoffset:0;stroke-opacity:1"
       id="rect4765-4-1"
       width="28.300928"
       height="34.351391"
       x="312.25125"
       y="277.83154" />
    <g
       id="g5625-4-6-27-6"
       transform="matrix(3.6384688,0,0,3.5609297,216.97667,229.69578)"
       inkscape:export-filename="C:\Users\KingEricc\Pictures\identity board.png"
       inkscape:export-xdpi="90"
       inkscape:export-ydpi="90"
       clip-path="url(#clipPath4689-4-96-65)"
       style="fill:#ff3400;fill-opacity:1">
      <g
         id="g5585-7-5-7-8"
         style="fill:#ff3400;fill-opacity:1">
        <path
           id="path5587-8-6-9-0"
           d="m 19.954,19.032 2.22,2.219 -2.22,2.219 0,-1.127 -5.592,0 0,-2.182 5.592,0 0,-1.129 z m -3.376,-3.799 -2.219,2.22 2.219,2.219 0,-1.128 5.592,0 0,-2.182 -5.592,0 0,-1.129 z M 7.289,18.797 C 7.145,18.706 6.912,18.633 6.592,18.571 L 5.854,18.436 5.625,19.663 c -0.026,0.175 -0.039,0.278 -0.036,0.312 0.005,0.039 0.024,0.069 0.051,0.088 0.03,0.021 0.112,0.047 0.252,0.07 l 0.413,0.08 c 0.238,0.043 0.443,0.059 0.609,0.043 C 7.082,20.239 7.233,20.172 7.371,20.053 7.507,19.934 7.595,19.776 7.633,19.575 7.66,19.407 7.651,19.26 7.595,19.128 7.537,19 7.437,18.885 7.289,18.797 Z M 7.634,16.546 C 7.502,16.477 7.257,16.406 6.892,16.337 l -0.62,-0.115 -0.259,1.382 0.62,0.118 C 6.959,17.782 7.207,17.8 7.371,17.776 7.537,17.749 7.668,17.688 7.768,17.595 7.865,17.499 7.929,17.379 7.955,17.237 7.984,17.087 7.973,16.955 7.918,16.833 7.864,16.714 7.77,16.619 7.634,16.546 Z m 5.51,1.72 c 0,3.631 -2.942,6.571 -6.571,6.571 C 2.944,24.837 0,21.897 0,18.266 c 0,-3.629 2.943,-6.57 6.572,-6.57 3.629,0 6.572,2.941 6.572,6.57 z M 9.277,16.529 C 9.165,16.286 8.979,16.081 8.719,15.913 8.619,15.846 8.494,15.789 8.357,15.734 l 0.188,-1 L 7.584,14.555 7.41,15.488 6.793,15.373 6.968,14.439 6.007,14.257 5.83,15.195 4.366,14.919 4.22,15.701 4.443,15.747 c 0.15,0.024 0.25,0.058 0.298,0.096 0.047,0.038 0.08,0.08 0.088,0.132 0.015,0.049 0.008,0.156 -0.024,0.326 l -0.593,3.163 c -0.029,0.166 -0.06,0.27 -0.09,0.312 -0.035,0.043 -0.076,0.072 -0.133,0.09 -0.058,0.016 -0.16,0.01 -0.31,-0.02 L 3.45,19.805 3.305,20.588 4.77,20.86 l -0.172,0.935 0.959,0.183 0.174,-0.935 0.544,0.103 c 0.025,0.006 0.05,0.008 0.073,0.012 l -0.174,0.936 0.961,0.178 0.188,-1.01 C 7.489,21.258 7.637,21.244 7.767,21.221 8.123,21.151 8.416,21 8.646,20.782 8.874,20.565 9.017,20.303 9.073,20.003 9.12,19.753 9.103,19.513 9.024,19.288 8.942,19.059 8.808,18.87 8.628,18.718 8.503,18.613 8.314,18.496 8.061,18.382 c 0.267,-0.04 0.483,-0.105 0.657,-0.207 0.175,-0.104 0.32,-0.229 0.43,-0.381 0.111,-0.154 0.188,-0.325 0.223,-0.512 0.047,-0.258 0.016,-0.51 -0.094,-0.753 z m 27.255,1.737 c 0,3.631 -2.942,6.571 -6.57,6.571 -3.631,0 -6.571,-2.939 -6.571,-6.571 0,-3.629 2.94,-6.57 6.571,-6.57 3.626,-0.004 6.57,2.941 6.57,6.57 z m -4.123,1.455 c 0,-1.002 -0.535,-1.613 -1.856,-2.08 -0.945,-0.354 -1.334,-0.59 -1.334,-0.955 0,-0.312 0.231,-0.623 0.955,-0.623 0.801,0 1.312,0.256 1.602,0.379 l 0.322,-1.256 c -0.367,-0.18 -0.867,-0.334 -1.612,-0.367 l 0,-0.979 -1.089,0 0,1.058 c -1.188,0.232 -1.879,1 -1.879,1.979 0,1.078 0.812,1.633 2,2.034 0.824,0.276 1.178,0.545 1.178,0.967 0,0.445 -0.432,0.688 -1.062,0.688 -0.726,0 -1.382,-0.233 -1.849,-0.489 l -0.332,1.301 c 0.42,0.244 1.144,0.445 1.89,0.479 l 0,1.055 1.09,0 0,-1.131 c 1.272,-0.226 1.976,-1.073 1.976,-2.06 z"
           inkscape:connector-curvature="0"
           style="fill:#ff3400;fill-opacity:1" />
      </g>
      <g
         id="g5589-4-9-93-4"
         style="fill:#ff3400;fill-opacity:1" />
      <g
         id="g5591-5-3-9-8"
         style="fill:#ff3400;fill-opacity:1" />
      <g
         id="g5593-0-7-8-4"
         style="fill:#ff3400;fill-opacity:1" />
      <g
         id="g5595-3-4-4-4"
         style="fill:#ff3400;fill-opacity:1" />
      <g
         id="g5597-6-5-08-2"
         style="fill:#ff3400;fill-opacity:1" />
      <g
         id="g5599-1-2-0-9"
         style="fill:#ff3400;fill-opacity:1" />
      <g
         id="g5601-0-5-5-6"
         style="fill:#ff3400;fill-opacity:1" />
      <g
         id="g5603-6-4-90-4"
         style="fill:#ff3400;fill-opacity:1" />
      <g
         id="g5605-3-7-9-5"
         style="fill:#ff3400;fill-opacity:1" />
      <g
         id="g5607-2-4-18-5"
         style="fill:#ff3400;fill-opacity:1" />
      <g
         id="g5609-0-4-2-4"
         style="fill:#ff3400;fill-opacity:1" />
      <g
         id="g5611-6-3-87-7"
         style="fill:#ff3400;fill-opacity:1" />
      <g
         id="g5613-1-0-68-0"
         style="fill:#ff3400;fill-opacity:1" />
      <g
         id="g5615-5-7-48-5"
         style="fill:#ff3400;fill-opacity:1" />
      <g
         id="g5617-5-8-9-7"
         style="fill:#ff3400;fill-opacity:1" />
    </g>
    <g
       style="font-style:normal;font-weight:normal;font-size:130.79624939px;line-height:125%;font-family:sans-serif;letter-spacing:0px;word-spacing:0px;fill:#ffffff;fill-opacity:1;stroke:#ffffff;stroke-width:0;stroke-linecap:butt;stroke-linejoin:miter;stroke-miterlimit:4;stroke-dasharray:none;stroke-opacity:1"
       id="text5602-8">
      <path
         d="m 237.5795,444.26096 q 0,25.54614 25.54614,25.54614 l 38.31921,0 0,12.77307 -38.31921,0 q -38.31921,0 -38.31921,-38.31921 0,-38.31922 38.31921,-38.31922 l 38.31921,0 0,12.77307 -38.31921,0 q -25.54614,0 -25.54614,25.54615 z"
         style="font-style:normal;font-variant:normal;font-weight:normal;font-stretch:normal;font-family:'Android 7';-inkscape-font-specification:'Android 7, ';letter-spacing:-7.16568375px;fill:#ffffff;stroke:#ffffff;stroke-width:0;stroke-miterlimit:4;stroke-dasharray:none"
         id="path4253" />
      <path
         d="m 307.05225,476.19363 q 0,-22.6722 13.41172,-31.93267 -13.41172,-9.19662 -13.41172,-31.93268 l 0,-6.38654 12.77307,0 0,6.38654 q 0,25.54614 25.54614,25.54614 25.54614,0 25.54614,-25.54614 l 0,-6.38654 12.77307,0 0,6.38654 q 0,22.73606 -13.47559,31.93268 13.47559,9.26047 13.47559,31.93267 l 0,6.38654 -12.77307,0 0,-6.38654 q 0,-25.54614 -25.54614,-25.54614 -25.54614,0 -25.54614,25.54614 l 0,6.38654 -12.77307,0 0,-6.38654 0,0 z"
         style="font-style:normal;font-variant:normal;font-weight:normal;font-stretch:normal;font-family:'Android 7';-inkscape-font-specification:'Android 7, ';letter-spacing:-7.16568375px;fill:#ffffff;stroke:#ffffff;stroke-width:0;stroke-miterlimit:4;stroke-dasharray:none"
         id="path4255" />
    </g>
  </g>
</svg>
